<svg width="71" height="34" viewBox="0 0 71 34" fill="none" xmlns="http://www.w3.org/2000/svg">
<path d="M40.176 0.735999L34.608 34H24.384L20.256 8.608L15.888 34H5.904L0.432 0.735999H8.304L11.616 28.048L16.224 0.735999H24.48L28.8 28.048L32.688 0.735999H40.176ZM54.7046 21.28H51.6326V34H43.7606V0.735999H54.6566C59.2006 0.735999 62.6086 1.568 64.8806 3.232C67.1846 4.896 68.3366 7.44 68.3366 10.864C68.3366 13.008 67.8246 14.8 66.8006 16.24C65.7766 17.648 64.1606 18.848 61.9526 19.84L70.4006 34H61.5206L54.7046 21.28ZM51.6326 15.856H54.9446C56.7046 15.856 58.0166 15.456 58.8806 14.656C59.7766 13.856 60.2246 12.592 60.2246 10.864C60.2246 9.264 59.7446 8.096 58.7846 7.36C57.8566 6.624 56.4166 6.256 54.4646 6.256H51.6326V15.856Z" fill="#141414"/>
</svg>
